# Blender v3.4.0 OBJ File: 'debug.blend'
# www.blender.org
o link3
v -165.920395 -23.591324 70.783913
v -162.062241 -26.785629 69.175102
v -158.901306 -24.540531 65.279480
v -147.504913 -26.294533 69.446091
v -146.365417 -23.671808 65.203720
v -165.637894 -27.550627 78.289650
v -162.668076 -24.903759 86.754784
v -160.441742 -27.082560 84.019798
v -149.574661 -23.696779 89.902275
v -133.243469 -25.251968 91.113701
v -164.066528 -15.978440 70.630356
v -154.646088 -17.425356 65.426460
v -146.091263 -15.490021 74.568909
v -142.234909 -18.016022 69.323738
v -166.635376 -18.242653 80.395782
v -159.910629 -17.776581 87.664696
v -153.536285 -15.796350 87.055656
v -148.383041 -18.932076 88.969231
v -123.391151 -23.045479 72.872475
v -134.340408 -23.464882 93.587929
v -117.230476 -23.985540 78.157486
v -117.760849 -24.080410 100.107239
v -133.802383 -20.585751 68.571709
v -121.751862 -18.356543 74.888130
v -142.567230 -18.035254 86.667686
v -133.095428 -18.953615 93.386482
v -122.921425 -21.155579 100.061157
v -119.597137 -17.952951 101.480858
v -110.442001 -21.157310 78.374855
v -112.588402 -13.867876 78.794525
v -114.043335 -14.839421 104.356537
v -111.263374 -11.060128 90.931122
v -108.642250 -6.545711 78.878662
v -107.264099 -0.121555 80.993637
v -102.758141 -22.856718 81.228256
v -107.191620 -6.686409 92.703720
v -104.219940 -14.059488 73.736557
v -99.048355 -18.267382 78.616272
v -100.334351 -6.490684 78.439491
v -114.851990 -20.818277 106.252014
v -107.776222 -5.708973 112.001450
v -107.127373 -20.979776 112.396034
v -106.194633 -0.183382 110.418404
v -100.023560 -10.099822 115.950493
v -102.371117 -22.610067 113.013885
v -96.036346 -16.899904 118.197762
v -84.036850 -12.086207 78.755089
v -80.465027 -20.986805 93.607231
v -83.924522 -7.233314 93.434746
v -83.119278 10.505477 78.637566
v -83.891396 8.628391 94.193527
v -81.254128 4.054385 88.247414
v -79.147720 -9.097503 89.585175
v -75.969963 3.858423 80.678078
v -72.721596 -11.704766 84.987251
v -69.503220 0.512569 87.765175
v -80.503181 -14.094353 97.003281
v -64.169502 -7.055377 90.024017
v -41.358612 -13.581663 115.044365
v -82.719170 -12.386008 120.819336
v -84.571548 -13.085100 103.757141
v -84.813408 -6.488859 112.722252
v -87.022049 -11.820943 120.081070
v -84.707611 6.463649 112.341850
v -79.143227 -20.955870 111.233719
v -80.530457 -15.257853 107.219223
v -81.726166 -5.158879 118.003777
v -82.083656 4.270720 119.427864
v -73.777603 -15.170471 103.306046
v -45.306072 -18.319080 110.572006
v -77.649323 -11.201019 113.625404
v -68.293236 -7.402883 83.341232
v -60.152004 -3.312538 79.029175
v -67.260056 6.846435 82.943413
v -60.871994 5.082917 89.240356
v -46.672836 -18.308043 95.061615
v -41.772324 -13.516794 90.888451
v -41.368820 -8.589938 86.991180
v -45.865089 -4.169218 88.289299
v -48.111965 -4.247176 81.276901
v -61.920448 -10.785427 119.871735
v -61.174679 -5.257101 116.546074
v -66.359177 -0.012087 118.417343
v -60.386040 4.707480 116.642982
v -42.669041 -11.606215 112.797249
v -41.410927 -12.436335 94.207535
v -48.084381 -15.466239 103.677299
v -41.403545 -4.447612 120.736816
v -80.359222 11.746359 120.946732
v -42.084076 -4.563932 118.060860
v -41.577564 -18.317297 103.324806
v -42.145176 -15.832963 102.866875
v -41.893478 6.036195 120.447739
v -163.974289 17.233442 69.544800
v -163.426392 26.413843 69.284637
v -158.143188 14.837903 72.241524
v -157.762558 24.316755 64.834396
v -155.033508 17.391277 65.482124
v -144.884979 23.732180 65.660904
v -142.452637 18.040770 69.113869
v -162.225510 23.923031 87.470032
v -167.066757 17.104591 78.222855
v -157.854248 16.416403 88.186813
v -147.930893 15.089581 79.274620
v -148.800690 20.849106 90.087234
v -142.553406 17.895779 85.182159
v -155.554779 26.594322 73.831772
v -147.744080 26.504189 69.513969
v -165.576538 27.594473 78.671860
v -161.598480 27.226446 83.692116
v -141.024536 24.427843 90.990662
v -128.653137 25.137842 90.960991
v -133.767761 20.415834 68.587120
v -126.252464 23.843643 72.035728
v -122.600708 18.074438 74.878197
v -136.215424 18.562874 91.563156
v -131.476486 23.847811 81.381508
v -125.929329 19.989901 97.645782
v -129.703369 23.823835 95.306175
v -124.932587 22.779966 84.718994
v -121.579056 18.179291 99.518646
v -118.586472 18.093683 85.331413
v -117.284363 18.448946 94.000069
v -120.155464 20.661289 89.017044
v -118.666473 23.840054 92.838417
v -117.288879 18.380239 75.854340
v -117.575790 24.011482 83.848190
v -113.851700 14.858521 86.788498
v -120.445053 24.507631 77.831161
v -111.077301 13.056031 78.667915
v -112.870689 21.334740 77.919258
v -112.030838 23.212526 90.467896
v -111.996826 12.341185 91.008354
v -107.184425 6.678702 93.072250
v -114.036362 23.834288 102.519936
v -113.919678 14.832743 105.088272
v -118.036179 21.597309 102.965828
v -108.666328 5.362987 111.200203
v -103.765747 21.698719 114.305077
v -104.553703 7.077944 112.919304
v -96.174644 16.695847 118.157509
v -79.819885 20.980770 111.087860
v -102.142326 22.638433 80.829994
v -72.918854 12.021482 85.675606
v -78.338257 10.662289 91.600670
v -79.309013 20.947342 93.714722
v -79.053619 14.839072 97.855080
v -84.857605 7.456089 115.037102
v -87.389893 12.034128 120.103058
v -84.628288 13.088052 103.464714
v -77.934601 5.643991 117.607620
v -80.296143 15.587807 106.372078
v -78.978722 11.882066 112.750610
v -41.461678 13.369257 95.851517
v -45.092392 18.071514 95.360191
v -49.386745 4.483061 80.177986
v -48.528912 15.450090 102.712502
v -41.701038 11.328816 113.528809
v -41.113464 12.602975 115.923546
v -44.944447 18.265837 110.719604
v -42.265606 5.795859 117.589355
v -42.169315 7.677695 85.710640
v -41.664001 7.420343 89.399597
v -41.587311 14.112395 91.499092
v -42.099476 15.961517 102.996017
v -41.893829 18.208191 104.018974
vn 0.0385 -0.8790 -0.4753
vn -0.3533 -0.8504 0.3899
vn -0.0670 -0.8062 0.5878
vn 0.0660 -0.9978 0.0046
vn -0.4319 0.2760 -0.8586
vn -0.0078 0.0253 -0.9996
vn 0.1501 0.9294 -0.3372
vn -0.9946 -0.1028 -0.0168
vn -0.2564 0.9543 0.1538
vn -0.0554 0.4522 0.8902
vn 0.2028 0.9685 0.1447
vn -0.1195 -0.8292 0.5460
vn 0.0768 -0.9970 -0.0026
vn 0.1752 -0.9137 -0.3668
vn -0.2685 0.2494 0.9304
vn 0.5589 0.8291 0.0116
vn -0.0625 0.9732 0.2212
vn 0.0945 0.9955 0.0029
vn 0.0212 0.9996 -0.0169
vn -0.1248 0.9885 0.0859
vn -0.3581 -0.6208 0.6974
vn -0.5163 0.1632 0.8407
vn 0.3397 -0.7744 -0.5338
vn 0.3661 0.1606 -0.9166
vn 0.1453 -0.6274 -0.7650
vn -0.0479 0.5448 -0.8372
vn -0.0521 0.3224 -0.9452
vn -0.5702 0.3173 0.7577
vn -0.3430 -0.8456 0.4090
vn -0.6226 -0.0062 0.7825
vn -0.7388 0.6730 0.0365
vn -0.8475 0.5119 -0.1402
vn -0.2693 -0.4663 0.8427
vn 0.3643 -0.7576 -0.5416
vn 0.6589 0.1798 0.7305
vn 0.2610 -0.0156 -0.9652
vn -0.0007 0.6681 0.7441
vn -0.0730 0.8179 0.5707
vn 0.0708 -0.9975 -0.0036
vn 0.1017 -0.8156 0.5696
vn -0.7165 0.6492 0.2553
vn 0.7438 0.5604 0.3643
vn 0.3767 0.6966 -0.6106
vn -0.2605 0.8643 -0.4302
vn -0.1089 0.3738 0.9211
vn 0.0832 -0.6668 0.7406
vn 0.0014 0.9206 -0.3905
vn 0.0697 -0.3529 0.9331
vn 0.0031 -0.0056 1.0000
vn 0.9891 -0.1322 -0.0647
vn 0.5116 -0.7988 -0.3164
vn 0.9515 0.2504 0.1789
vn 0.8903 0.4339 -0.1377
vn 0.9121 0.1942 -0.3612
vn 0.9549 0.1604 -0.2498
vn -0.6145 0.0143 -0.7888
vn 0.2723 -0.4113 -0.8698
vn -0.4646 0.8854 0.0159
vn -0.7002 -0.3482 0.6233
vn -0.0438 -0.9941 0.0992
vn 0.1586 -0.9678 -0.1956
vn 0.1514 -0.9392 0.3083
vn 0.1367 0.9518 -0.2745
vn -0.1096 0.9696 -0.2186
vn -0.5585 0.6682 0.4915
vn 0.0436 0.9924 -0.1148
vn 0.0681 0.9974 -0.0222
vn -0.0493 0.8783 0.4756
vn 0.1763 -0.7783 -0.6026
vn 0.4670 -0.8842 -0.0051
vn 0.0415 -0.9971 0.0630
vn -0.0292 -0.9996 0.0055
vn 0.0256 0.9656 0.2588
vn -0.6315 -0.7360 0.2439
vn -0.4839 -0.3200 0.8146
vn 0.1636 0.8544 -0.4932
vn 0.1669 0.9694 -0.1798
vn -0.1459 0.9778 0.1502
vn -0.3067 0.6809 0.6651
vn 0.0614 -0.9979 -0.0218
vn 0.9061 -0.0494 0.4202
vn 0.8829 0.1291 -0.4514
vn -0.6183 -0.7785 -0.1082
vn -0.5623 -0.8269 -0.0086
vn -0.3463 -0.2816 -0.8949
vn 0.0962 0.9946 0.0395
vn -1.0000 0.0004 0.0064
vn -0.5593 -0.2983 -0.7734
vn -0.7770 -0.5464 0.3127
vn -0.2900 -0.1483 -0.9455
vn 0.0207 -0.0094 -0.9997
vn 0.1835 0.4460 -0.8760
vn -0.6207 -0.1354 0.7722
vn -0.7526 -0.6583 0.0137
vn -0.8273 -0.5455 -0.1342
vn 0.0806 0.9960 -0.0380
vn -0.8658 -0.4995 -0.0298
vn -0.6218 0.0379 0.7822
vn -0.9640 0.2495 -0.0921
vn 0.0920 0.9951 -0.0360
vn 0.3503 0.8239 -0.4454
vn 0.5106 0.3020 -0.8050
vn 0.5100 -0.5575 0.6550
vn -0.0892 -0.4191 0.9035
vn 0.0300 0.0291 0.9991
vn 0.0690 0.9976 0.0001
vn -0.3214 -0.2214 0.9207
vn 0.0481 0.9894 0.1373
vn -0.0558 -0.7545 0.6539
vn 0.0802 0.6817 0.7273
vn 0.9970 0.0573 0.0517
vn 0.6532 -0.6096 -0.4491
vn 0.0080 -0.8070 -0.5905
vn 0.1388 -0.5938 -0.7925
vn 0.4973 -0.6942 0.5205
vn 0.0798 0.6705 0.7376
vn 0.0494 0.5080 -0.8599
vn -0.1087 0.2903 -0.9508
vn 0.0443 -0.0521 -0.9977
vn -0.0674 -0.2752 -0.9590
vn 0.0022 -0.6141 -0.7892
vn 0.0776 0.9970 0.0004
vn 0.0844 0.9963 -0.0134
vn 0.0172 0.0284 0.9995
vn 0.0942 0.6611 -0.7444
vn 0.0035 -0.0966 0.9953
vn 0.9904 0.0383 -0.1330
vn 0.1405 -0.1447 0.9794
vn -0.0087 0.9999 -0.0126
vn 0.0593 -0.9367 0.3451
vn 0.0902 -0.9104 -0.4038
vn 0.6028 0.7626 -0.2347
vn 0.9691 0.0058 -0.2467
vn 0.9769 -0.1818 -0.1119
vn 0.9699 -0.2071 -0.1278
vn 0.9775 -0.1548 0.1434
vn 0.6484 0.7043 0.2891
vn 0.9903 0.0426 -0.1325
vn 0.0562 -0.8559 -0.5141
vn -0.6798 -0.6589 -0.3220
vn 0.1264 -0.9914 -0.0336
vn 0.0341 -0.9991 -0.0237
vn -0.1197 -0.7487 0.6520
vn -0.6032 -0.3736 -0.7047
vn -0.6008 0.1304 -0.7887
vn 0.0235 0.9734 -0.2281
vn 0.2904 0.4157 -0.8619
vn -0.9086 -0.1824 0.3758
vn -0.9533 0.2282 -0.1979
vn -0.7260 0.1967 0.6590
vn -0.2742 0.9421 0.1933
vn -0.2305 -0.0350 0.9724
vn -0.0288 0.9996 0.0074
vn -0.0888 0.2128 0.9731
vn 0.1838 -0.8574 -0.4807
vn 0.0907 0.5422 -0.8353
vn 0.3112 -0.2738 -0.9100
vn 0.4177 0.2317 -0.8786
vn 0.1673 0.6991 0.6951
vn -0.2353 0.1081 0.9659
vn 0.1795 0.7688 -0.6138
vn -0.1376 -0.8309 0.5391
vn -0.5123 0.1789 0.8399
vn 0.2394 0.3116 -0.9196
vn 0.2801 -0.0359 -0.9593
vn 0.0780 -0.9970 -0.0011
vn -0.8508 0.5247 -0.0285
vn -0.5162 -0.1031 -0.8502
vn -0.4927 0.2750 -0.8256
vn -0.6529 0.3595 -0.6666
vn -0.9333 0.3585 0.0190
vn -0.7543 0.5707 0.3246
vn 0.2185 -0.4583 -0.8615
vn 0.2204 -0.6109 -0.7604
vn 0.7132 0.0674 -0.6977
vn -0.4085 -0.7118 0.5713
vn -0.5918 0.2791 0.7562
vn -0.8737 0.2504 0.4171
vn 0.0773 -0.9970 -0.0032
vn -0.4116 -0.7098 0.5717
vn -0.8847 0.3435 0.3150
vn -0.4522 0.0038 0.8919
vn 0.0896 -0.9960 0.0066
vn -0.4684 0.0173 0.8833
vn 0.0148 -0.0134 -0.9998
vn 0.2663 -0.6303 -0.7293
vn 0.3249 -0.7748 -0.5424
vn 0.9075 -0.0220 0.4194
vn 0.6360 0.5812 0.5077
vn -0.1294 0.8332 0.5376
vn 0.3843 -0.6474 -0.6581
vn -0.0618 0.2452 0.9675
vn 0.0799 -0.9968 0.0068
vn -0.2816 0.1482 0.9480
vn 0.0834 -0.7190 0.6900
vn -0.1756 -0.0528 0.9830
vn 0.9985 -0.0274 0.0471
vn 0.9989 -0.0068 0.0463
vn 0.3998 0.9106 0.1048
vn 0.6822 0.5976 -0.4213
vn 0.6043 0.6139 -0.5078
vn 0.0527 0.9922 0.1131
vn 0.0776 -0.9970 -0.0041
vn -0.9512 0.0105 -0.3085
vn -0.0613 0.4445 -0.8937
vn 0.0241 0.6751 0.7373
vn 0.0866 -0.7158 -0.6930
vn -0.4718 0.0096 -0.8817
vn 0.1917 -0.5167 -0.8344
vn -0.2311 0.1251 0.9648
vn 0.0722 -0.6602 -0.7476
vn -0.0667 -0.6156 -0.7852
vn 0.0519 -0.7716 -0.6339
vn 0.0624 -0.7577 -0.6496
vn 0.0880 0.0404 0.9953
vn -0.0136 0.5772 0.8165
vn 0.0854 -0.6767 0.7313
vn 0.0794 -0.9968 -0.0077
vn -0.0153 0.4749 -0.8799
vn -0.0109 0.9677 0.2519
vn 0.0159 0.9352 -0.3538
vn 0.0693 -0.7147 0.6959
vn -0.4277 -0.1090 0.8973
vn 0.0420 0.5959 -0.8020
vn 0.7079 0.6215 0.3354
vn 0.1264 -0.5242 0.8421
vn -0.0008 -1.0000 -0.0006
vn 0.5770 -0.7609 0.2967
vn 0.1076 0.9224 0.3709
vn 0.0034 0.9202 -0.3915
vn 0.9738 0.2039 -0.1006
vn 0.9894 -0.1296 -0.0655
vn -0.3981 -0.2397 -0.8855
vn -0.1737 -0.8922 -0.4169
vn 0.0608 -0.0692 -0.9958
vn 0.1342 -0.9459 -0.2956
vn -0.9412 0.0467 -0.3347
vn -0.3249 -0.9368 -0.1297
vn -0.1814 -0.9783 0.1001
vn -0.1958 -0.0204 0.9804
vn 0.2018 -0.7040 0.6809
vn 0.0729 0.8345 -0.5462
vn -0.9601 0.1466 -0.2383
vn -0.9120 0.1127 0.3944
vn 0.0973 0.9952 -0.0042
vn -0.1245 0.7571 0.6413
vn -0.1654 0.1120 0.9799
vn 0.0817 -0.4912 -0.8672
vn 0.4642 -0.1373 -0.8750
vn -0.2045 -0.9316 0.3005
vn 0.0043 -1.0000 -0.0090
vn -0.1162 0.0017 0.9932
vn 0.6683 -0.6847 -0.2907
vn 0.8051 -0.5923 -0.0309
vn 0.3576 -0.2207 -0.9074
vn -0.0824 0.8546 0.5128
vn -0.4678 -0.2460 0.8489
vn -0.5533 -0.0369 0.8321
vn 0.3131 0.2384 -0.9193
vn 0.0511 0.9961 0.0716
vn 0.0272 0.9642 0.2639
vn -0.0544 0.9593 0.2770
vn 0.1485 0.9546 -0.2581
vn 0.2578 0.9446 -0.2032
vn 0.1719 0.9511 -0.2568
vn 0.7058 0.3846 -0.5949
vn -0.1206 0.9579 0.2605
vn -0.2707 -0.9280 -0.2560
vn 0.1410 0.4167 -0.8980
vn -0.5298 -0.0438 -0.8470
vn -0.7202 -0.6874 -0.0935
vn 0.4187 0.0086 -0.9081
vn -0.4500 -0.2760 0.8493
vn -0.9114 0.0176 0.4111
vn 0.3852 0.9165 -0.1081
vn -0.7184 0.2821 0.6358
vn -0.9526 -0.2912 -0.0879
vn 0.0007 0.9116 -0.4110
vn 0.0680 0.9976 0.0104
vn -0.2414 -0.9418 -0.2339
vn -0.7376 -0.6665 -0.1087
vn -0.3869 0.7874 0.4799
vn -0.9984 -0.0010 0.0566
vn -0.9139 -0.3927 -0.1032
vn -0.2803 -0.2553 0.9253
vn -0.3602 -0.0688 0.9303
vn -0.4814 -0.0570 0.8746
vn 0.1409 0.9878 -0.0668
vn 0.0173 -0.0059 -0.9998
vn 0.3517 0.6697 -0.6541
vn 0.3645 0.7536 -0.5470
vn 0.0746 0.1127 0.9908
vn -0.0335 -0.0632 0.9974
vn -0.0190 -0.9386 0.3445
vn 0.9990 -0.0042 0.0444
vn -0.1086 0.2017 0.9734
vn -0.0144 -0.7823 0.6228
vn 0.4225 -0.8954 0.1404
vn 0.6052 -0.6976 0.3836
vn -0.4316 0.1187 -0.8942
vn -0.8168 -0.5674 0.1044
vn -0.1243 -0.1700 0.9776
vn -0.8277 0.0780 0.5558
vn 0.0188 -0.3391 0.9406
vn 0.0297 -0.3091 0.9506
vn -0.0260 -0.9144 -0.4039
vn 0.0930 0.7023 -0.7058
vn 0.0757 0.5290 -0.8452
vn 0.0303 0.8480 -0.5291
vn 0.1753 -0.0977 -0.9797
vn 0.0934 0.5573 0.8250
vn 0.0059 -0.9961 0.0884
vn 0.0670 -0.0204 -0.9975
vn -0.3090 0.0337 -0.9505
vn -0.0033 0.6868 -0.7268
vn -0.0234 -0.9631 0.2680
vn 0.0080 -0.5922 -0.8058
vn 0.0841 0.7045 0.7047
vn 0.0762 0.9300 0.3596
vn 0.6112 -0.0104 -0.7914
vn 0.0774 0.7304 -0.6787
vn 0.6351 -0.0295 -0.7719
vn 0.9906 0.0305 -0.1336
vn 0.9996 -0.0023 -0.0292
vn 0.9703 -0.2044 -0.1293
vn 0.9943 0.1065 -0.0105
vn 0.9947 -0.0505 -0.0890
s off
f 2//1 3//1 4//1
f 6//2 8//2 7//2
f 7//3 8//3 9//3
f 10//4 8//4 4//4
f 12//5 3//5 11//5
f 5//6 3//6 12//6
f 13//7 14//7 12//7
f 1//8 6//8 15//8
f 17//9 11//9 15//9
f 17//10 16//10 18//10
f 17//11 25//11 13//11
f 9//12 10//12 20//12
f 10//13 4//13 21//13
f 21//14 4//14 19//14
f 18//15 9//15 26//15
f 25//16 14//16 13//16
f 26//17 25//17 18//17
f 26//18 14//18 25//18
f 28//19 24//19 14//19
f 28//20 14//20 26//20
f 27//21 10//21 22//21
f 28//22 26//22 27//22
f 19//23 29//23 21//23
f 30//24 29//24 19//24
f 35//25 29//25 37//25
f 39//26 37//26 33//26
f 39//27 33//27 34//27
f 28//28 40//28 31//28
f 40//29 45//29 42//29
f 41//30 40//30 42//30
f 32//31 31//31 36//31
f 36//32 31//32 43//32
f 42//33 45//33 46//33
f 35//34 47//34 48//34
f 52//35 49//35 53//35
f 50//36 54//36 47//36
f 62//37 41//37 44//37
f 63//38 62//38 44//38
f 45//39 48//39 65//39
f 59//40 45//40 65//40
f 67//41 62//41 63//41
f 61//42 57//42 49//42
f 67//43 71//43 66//43
f 71//44 69//44 66//44
f 60//45 67//45 63//45
f 46//46 59//46 81//46
f 85//47 87//47 71//47
f 60//48 81//48 88//48
f 60//49 88//49 89//49
f 86//50 77//50 78//50
f 91//51 76//51 77//51
f 92//52 91//52 86//52
f 59//53 92//53 85//53
f 59//54 85//54 90//54
f 90//55 88//55 59//55
f 97//56 94//56 95//56
f 98//57 99//57 100//57
f 24//58 28//58 31//58 30//58
f 101//59 102//59 103//59
f 96//60 104//60 103//60
f 104//61 96//61 100//61
f 103//62 104//62 106//62
f 95//63 107//63 97//63
f 107//64 108//64 97//64
f 110//65 109//65 101//65
f 109//66 107//66 95//66
f 112//67 107//67 110//67
f 112//68 110//68 111//68
f 100//69 113//69 115//69
f 100//70 106//70 104//70
f 116//71 106//71 115//71
f 116//72 115//72 121//72
f 120//73 129//73 117//73
f 115//74 122//74 124//74
f 137//75 118//75 121//75
f 108//76 114//76 99//76
f 117//77 107//77 112//77
f 129//78 120//78 127//78
f 119//79 137//79 135//79
f 115//80 126//80 122//80
f 124//81 122//81 127//81
f 125//82 123//82 124//82
f 122//83 126//83 130//83
f 122//84 130//84 128//84
f 132//85 123//85 125//85
f 132//86 143//86 127//86
f 34//87 36//87 134//87
f 39//88 34//88 130//88
f 133//89 34//89 134//89
f 131//90 39//90 130//90
f 131//91 50//91 39//91
f 143//92 50//92 131//92
f 137//93 121//93 136//93
f 123//94 133//94 136//94
f 136//95 138//95 137//95
f 135//96 132//96 125//96
f 136//97 133//97 138//97
f 137//98 138//98 139//98
f 43//99 41//99 140//99
f 142//100 132//100 135//100
f 129//101 131//101 114//101
f 50//102 144//102 54//102
f 51//103 52//103 145//103
f 145//104 52//104 56//104
f 64//105 140//105 62//105
f 142//106 146//106 132//106
f 141//107 140//107 149//107
f 139//108 142//108 135//108
f 140//109 148//109 149//109
f 139//110 141//110 159//110
f 64//111 51//111 150//111
f 150//112 152//112 64//112
f 68//113 148//113 151//113
f 153//114 151//114 148//114
f 147//115 51//115 145//115
f 159//116 141//116 89//116
f 74//117 54//117 144//117
f 156//118 73//118 74//118
f 83//119 67//119 151//119
f 151//120 84//120 83//120
f 151//121 153//121 161//121
f 160//122 146//122 142//122
f 160//123 155//123 146//123
f 89//124 88//124 93//124
f 164//125 162//125 144//125
f 163//126 75//126 79//126
f 163//127 78//127 162//127
f 79//128 78//128 163//128
f 166//129 155//129 160//129
f 157//130 154//130 165//130
f 158//131 157//131 165//131
f 155//132 166//132 164//132
f 161//133 88//133 90//133
f 93//134 161//134 158//134
f 158//135 165//135 159//135
f 166//136 165//136 154//136
f 159//137 166//137 160//137
f 93//138 88//138 161//138
f 5//139 4//139 3//139
f 6//140 1//140 2//140
f 8//141 6//141 2//141
f 4//142 8//142 2//142
f 9//143 8//143 10//143
f 1//144 3//144 2//144
f 11//145 3//145 1//145
f 11//146 13//146 12//146
f 12//147 14//147 5//147
f 15//148 6//148 7//148
f 11//149 1//149 15//149
f 7//150 16//150 15//150
f 15//151 16//151 17//151
f 16//152 7//152 9//152
f 13//153 11//153 17//153
f 18//154 16//154 9//154
f 4//155 5//155 19//155
f 14//156 23//156 5//156
f 23//157 19//157 5//157
f 23//158 24//158 19//158
f 25//159 17//159 18//159
f 26//160 9//160 20//160
f 14//161 24//161 23//161
f 27//162 20//162 10//162
f 26//163 20//163 27//163
f 24//164 30//164 19//164
f 47//165 54//165 74//165 72//165
f 35//166 10//166 21//166
f 31//167 32//167 30//167
f 30//168 37//168 29//168
f 33//169 37//169 30//169
f 34//170 33//170 30//170
f 34//171 30//171 32//171
f 36//172 34//172 32//172
f 35//173 21//173 29//173
f 35//174 37//174 38//174
f 37//175 39//175 38//175
f 40//176 27//176 22//176
f 40//177 28//177 27//177
f 41//178 31//178 40//178
f 22//179 10//179 35//179
f 45//180 40//180 22//180
f 43//181 31//181 41//181
f 44//182 41//182 42//182
f 22//183 35//183 45//183
f 46//184 44//184 42//184
f 39//185 47//185 38//185
f 35//186 38//186 47//186
f 48//187 47//187 55//187
f 52//188 51//188 49//188
f 53//189 49//189 57//189
f 53//190 57//190 58//190
f 47//191 72//191 55//191
f 58//192 56//192 53//192
f 45//193 35//193 48//193
f 63//194 44//194 46//194
f 59//195 46//195 45//195
f 63//196 46//196 60//196
f 49//197 62//197 61//197
f 49//198 64//198 62//198
f 66//199 57//199 61//199
f 61//200 62//200 66//200
f 67//201 66//201 62//201
f 66//202 69//202 57//202
f 70//203 65//203 48//203
f 68//204 67//204 60//204
f 82//205 71//205 67//205 83//205
f 57//206 86//206 58//206
f 76//207 48//207 55//207
f 74//208 73//208 72//208
f 55//209 72//209 76//209
f 75//210 56//210 58//210
f 78//211 76//211 72//211
f 76//212 78//212 77//212
f 72//213 73//213 78//213
f 73//214 80//214 78//214
f 75//215 58//215 79//215
f 79//216 58//216 86//216
f 60//217 46//217 81//217
f 70//218 48//218 76//218
f 82//219 85//219 71//219
f 57//220 69//220 87//220 86//220
f 71//221 87//221 69//221
f 70//222 59//222 65//222
f 118//223 119//223 111//223 116//223
f 90//224 85//224 82//224
f 86//225 78//225 79//225
f 88//226 81//226 59//226
f 91//227 70//227 76//227
f 91//228 59//228 70//228
f 87//229 92//229 86//229
f 85//230 92//230 87//230
f 92//231 59//231 91//231
f 86//232 91//232 77//232
f 98//233 94//233 97//233
f 96//234 94//234 98//234
f 97//235 99//235 98//235
f 96//236 98//236 100//236
f 102//237 95//237 94//237
f 102//238 94//238 96//238
f 103//239 102//239 96//239
f 101//240 103//240 105//240
f 105//241 103//241 106//241
f 108//242 99//242 97//242
f 109//243 95//243 102//243
f 101//244 109//244 102//244
f 110//245 107//245 109//245
f 101//246 111//246 110//246
f 111//247 101//247 105//247
f 99//248 113//248 100//248
f 114//249 115//249 113//249
f 116//250 105//250 106//250
f 106//251 100//251 115//251
f 111//252 105//252 116//252
f 64//253 152//253 153//253 148//253
f 124//254 121//254 115//254
f 114//255 131//255 115//255
f 120//256 124//256 127//256
f 118//257 116//257 121//257
f 137//258 119//258 118//258
f 99//259 114//259 113//259
f 107//260 129//260 108//260
f 107//261 117//261 129//261
f 111//262 119//262 112//262
f 129//263 114//263 108//263
f 112//264 120//264 117//264
f 125//265 120//265 112//265
f 125//266 124//266 120//266
f 119//267 135//267 112//267
f 121//268 124//268 123//268
f 131//269 126//269 115//269
f 123//270 132//270 133//270
f 128//271 130//271 133//271
f 131//272 130//272 126//272
f 132//273 122//273 128//273
f 132//274 128//274 133//274
f 127//275 131//275 129//275
f 127//276 122//276 132//276
f 133//277 130//277 34//277
f 127//278 143//278 131//278
f 132//279 146//279 143//279
f 136//280 121//280 123//280
f 138//281 133//281 134//281
f 137//282 139//282 135//282
f 134//283 36//283 43//283
f 43//284 138//284 134//284
f 140//285 138//285 43//285
f 139//286 138//286 140//286
f 139//287 140//287 141//287
f 135//288 125//288 112//288
f 50//289 47//289 39//289
f 143//290 144//290 50//290
f 146//291 144//291 143//291
f 56//292 52//292 53//292
f 140//293 41//293 62//293
f 148//294 140//294 64//294
f 64//295 49//295 51//295
f 141//296 149//296 89//296
f 145//297 163//297 154//297 147//297
f 147//298 152//298 150//298
f 147//299 150//299 51//299
f 68//300 151//300 67//300
f 149//301 148//301 68//301
f 89//302 149//302 68//302
f 89//303 68//303 60//303
f 75//304 145//304 56//304
f 163//305 145//305 75//305
f 157//306 158//306 153//306 152//306
f 146//307 155//307 144//307
f 144//308 162//308 74//308
f 162//309 156//309 74//309
f 156//310 80//310 73//310
f 159//311 89//311 93//311
f 157//312 152//312 147//312
f 82//313 84//313 161//313 90//313
f 84//314 82//314 83//314
f 151//315 161//315 84//315
f 157//316 147//316 154//316
f 153//317 158//317 161//317
f 160//318 139//318 159//318
f 139//319 160//319 142//319
f 156//320 162//320 80//320
f 155//321 164//321 144//321
f 162//322 78//322 80//322
f 164//323 163//323 162//323
f 164//324 154//324 163//324
f 159//325 93//325 158//325
f 164//326 166//326 154//326
f 166//327 159//327 165//327
