# Blender v3.4.0 OBJ File: 'debug.blend'
# www.blender.org
o link10
v 60.781719 -0.105263 88.439377
v 68.435699 -13.530004 94.810379
v 67.115356 4.392454 94.758873
v 71.571487 -15.452799 109.870438
v 70.343559 -3.915251 117.725830
v 70.313622 -0.075273 99.929268
v 80.030075 -7.498488 87.980057
v 76.073441 -1.057702 89.397522
v 84.817299 -2.102297 82.936661
v 84.763763 -5.401127 94.722221
v 85.544960 -14.430453 96.782486
v 86.095566 -5.241129 90.430954
v 84.299080 -0.411544 93.200615
v 97.578720 -0.458532 90.750885
v 103.081093 -6.580850 87.232475
v 107.357071 -1.213018 83.164856
v 97.717209 -0.254142 95.229919
v 75.157310 -0.011455 114.516228
v 83.480042 -6.854048 118.195175
v 84.279747 -14.246624 110.331314
v 86.069626 -5.000042 111.739029
v 85.635567 -1.378065 123.016777
v 95.364159 -3.942921 111.955742
v 97.866798 -11.226781 107.407417
v 98.658569 -10.879302 97.975143
v 105.073578 -2.998856 123.392670
v 97.181648 -4.469203 94.971062
v 106.802917 -9.167000 91.834747
v 113.991547 -2.989945 87.571327
v 123.030235 -0.049079 94.025482
v 102.325058 -5.780638 117.443764
v 108.193550 -8.998643 113.905396
v 111.947693 -1.097085 120.091774
v 119.399399 -2.569325 115.938629
v 126.315384 -2.898445 94.783218
v 126.671143 -1.974555 111.194435
v 53.341248 15.689120 90.572693
v 56.920105 9.265934 90.714630
v 66.820335 14.505332 95.634148
v 65.112198 34.249310 87.718491
v 68.532173 5.426655 90.028870
v 67.698524 32.936157 96.868500
v 56.305576 15.678136 97.200302
v 53.981491 33.022991 90.155838
v 57.488991 31.753872 97.104355
vn -0.6880 -0.0486 0.7241
vn -0.2184 -0.5172 -0.8275
vn -0.9604 -0.2193 0.1720
vn -0.9914 0.1273 0.0291
vn 0.0319 -0.7754 -0.6306
vn -0.5978 -0.1962 -0.7773
vn -0.0023 0.9867 -0.1627
vn 0.3247 -0.9436 0.0656
vn 0.8253 -0.0568 -0.5618
vn -0.0267 0.9861 -0.1638
vn 0.1609 -0.4453 0.8808
vn 0.0324 -0.6199 -0.7840
vn -0.5457 0.8189 0.1776
vn 0.0440 -0.7257 0.6866
vn -0.1558 -0.5672 0.8087
vn 0.0937 -0.9954 0.0223
vn -0.1650 -0.6144 0.7716
vn 0.1153 -0.9661 -0.2312
vn 0.0360 -0.2194 -0.9750
vn -0.0311 -0.9700 0.2410
vn -0.7771 -0.4049 -0.4819
vn 0.2523 -0.7040 -0.6638
vn -0.0092 0.9997 -0.0234
vn 0.1912 -0.9814 -0.0201
vn 0.0063 0.9885 0.1512
vn 0.4748 0.3306 -0.8156
vn 0.3607 -0.9316 0.0446
vn -0.7913 -0.4313 0.4335
vn -0.2731 -0.3318 0.9030
vn 0.2348 -0.0500 -0.9708
vn -0.1094 0.9791 0.1714
vn 0.5426 0.7719 0.3313
vn 0.0927 -0.1360 -0.9864
vn -0.8722 -0.0629 0.4852
vn -0.0281 0.9937 -0.1081
vn 0.4588 -0.7890 -0.4087
vn 0.9379 0.1781 0.2977
vn -0.1408 -0.9215 -0.3619
vn -0.0375 0.9885 -0.1467
vn 0.2398 -0.9707 0.0146
vn -0.0385 -0.9922 -0.1187
vn -0.3098 0.8020 0.5108
vn 0.9249 -0.2256 0.3062
vn 0.0189 0.9998 -0.0107
vn -0.0083 0.9997 -0.0223
vn -0.0053 -0.7924 0.6100
vn -0.0061 -0.1494 0.9888
vn 0.0387 -0.9317 -0.3611
vn 0.2810 -0.4370 0.8544
vn 0.1857 -0.3816 -0.9055
vn -0.2379 0.0015 -0.9713
vn -0.3108 0.7034 0.6392
vn -0.9919 0.1245 0.0250
vn -0.1198 -0.9038 -0.4109
vn 0.0407 0.9981 -0.0468
vn 0.2615 -0.7356 -0.6249
vn -0.0123 0.9960 -0.0890
vn 0.5647 0.0692 -0.8224
vn -0.3408 -0.5794 0.7403
vn -0.3845 -0.9044 0.1848
vn 0.0220 0.9985 0.0495
vn 0.2146 -0.9767 -0.0061
vn 0.2569 -0.6685 0.6979
vn 0.1118 0.9899 0.0873
vn -0.1786 -0.8571 0.4833
vn 0.0562 0.8100 0.5838
vn 0.4633 -0.6722 0.5775
vn 0.3294 -0.7652 -0.5532
vn 0.5090 0.2773 0.8149
vn 0.3075 -0.9515 -0.0121
vn 0.3730 -0.7991 0.4715
vn 0.6616 0.7478 -0.0564
vn -0.8992 0.0557 0.4339
vn -0.6736 -0.0832 0.7344
vn 0.0550 0.2038 -0.9775
vn 0.9578 0.0031 0.2876
vn 0.9167 -0.0700 0.3934
vn -0.8168 -0.4471 0.3646
vn 0.0257 -0.7097 0.7041
vn 0.0226 0.0043 0.9997
vn 0.1390 -0.0728 0.9876
vn -0.0617 0.9759 0.2094
vn 0.9615 0.0934 -0.2584
vn 0.2061 0.3294 -0.9214
vn 0.6389 0.7155 0.2827
s off
f 1//1 2//1 3//1
f 1//2 7//2 2//2
f 5//3 2//3 4//3
f 2//4 5//4 6//4
f 2//5 7//5 11//5
f 9//6 7//6 8//6
f 13//7 9//7 8//7
f 10//8 7//8 12//8
f 10//9 11//9 7//9
f 14//10 9//10 13//10
f 13//11 12//11 14//11
f 15//12 9//12 16//12
f 18//13 6//13 5//13
f 19//14 4//14 20//14
f 5//15 4//15 19//15
f 4//16 11//16 20//16
f 5//17 19//17 22//17
f 19//18 21//18 23//18
f 27//19 11//19 10//19
f 12//20 15//20 27//20
f 27//21 15//21 25//21
f 15//22 16//22 29//22
f 30//23 17//23 18//23
f 24//24 25//24 28//24
f 33//25 18//25 22//25
f 30//26 35//26 29//26
f 32//27 35//27 36//27
f 1//28 38//28 37//28
f 38//29 1//29 39//29
f 41//30 1//30 40//30
f 42//31 40//31 45//31
f 3//32 6//32 41//32
f 10//33 13//33 17//33 27//33
f 3//34 2//34 6//34
f 6//35 13//35 8//35
f 12//36 7//36 9//36
f 13//37 10//37 12//37
f 12//38 9//38 15//38
f 14//39 16//39 9//39
f 25//40 24//40 20//40 11//40
f 4//41 2//41 11//41
f 5//42 22//42 18//42
f 21//43 19//43 20//43
f 18//44 13//44 6//44
f 18//45 17//45 13//45
f 31//46 26//46 22//46 19//46
f 23//47 21//47 20//47
f 31//48 19//48 23//48
f 23//49 20//49 24//49
f 27//50 25//50 11//50
f 37//51 44//51 40//51 1//51
f 14//52 12//52 27//52
f 17//53 14//53 27//53
f 28//54 25//54 15//54
f 17//55 16//55 14//55
f 28//56 15//56 29//56
f 30//57 16//57 17//57
f 30//58 29//58 16//58
f 32//59 23//59 24//59
f 31//60 23//60 32//60
f 33//61 30//61 18//61
f 24//62 28//62 32//62
f 34//63 33//63 32//63
f 33//64 36//64 30//64
f 26//65 31//65 32//65
f 26//66 33//66 22//66
f 33//67 26//67 32//67
f 28//68 29//68 35//68
f 34//69 36//69 33//69
f 35//70 32//70 28//70
f 36//71 34//71 32//71
f 36//72 35//72 30//72
f 43//73 45//73 44//73 37//73
f 39//74 1//74 3//74
f 1//75 41//75 7//75
f 41//76 39//76 3//76
f 42//77 39//77 41//77
f 37//78 38//78 43//78
f 43//79 38//79 39//79
f 42//80 45//80 43//80
f 42//81 43//81 39//81
f 40//82 44//82 45//82
f 42//83 41//83 40//83
f 41//84 8//84 7//84
f 6//85 8//85 41//85
