# Blender v3.4.0 OBJ File: 'debug.blend'
# www.blender.org
o link12
v 66.181335 43.762970 95.552200
v 51.437347 50.218822 99.010353
v 55.460617 49.858402 114.274437
v 56.341549 38.668491 103.633430
v 56.822189 46.084667 92.522675
v 57.223953 42.780029 110.579239
v 66.333977 40.552879 107.762543
v 60.964874 48.263756 102.158447
v 66.516479 52.568489 112.439751
v 66.544449 56.518406 95.987267
v 54.389065 57.749126 96.852524
v 56.882053 60.480392 106.441788
v 64.367027 58.277855 105.646141
vn -0.9248 -0.2979 0.2367
vn -0.8000 -0.4824 -0.3566
vn 0.1947 -0.3584 0.9131
vn 0.3131 0.0235 -0.9494
vn 0.2446 -0.4001 0.8832
vn 0.0758 0.9536 -0.2913
vn 0.8792 -0.3927 0.2697
vn 0.8950 -0.1589 -0.4167
vn 0.2880 0.7761 0.5611
vn -0.8555 -0.3906 0.3399
vn 0.3576 -0.7838 -0.5077
vn -0.0506 -0.8566 0.5135
vn -0.1564 -0.9557 -0.2493
vn 0.7525 0.6392 0.1587
vn -0.0322 0.3419 -0.9392
vn -0.8781 0.4133 0.2412
vn -0.7351 0.0958 -0.6712
vn -0.9509 0.2558 0.1743
vn -0.0123 0.5945 0.8040
vn 0.7694 -0.0436 0.6373
vn 0.8274 0.1928 -0.5275
vn 0.2693 0.9563 -0.1135
s off
f 2//1 4//1 3//1
f 2//2 5//2 4//2
f 9//3 6//3 7//3
f 10//4 1//4 5//4
f 9//5 3//5 6//5
f 12//6 10//6 11//6
f 13//7 8//7 10//7
f 13//8 9//8 8//8
f 12//9 9//9 13//9
f 3//10 4//10 6//10
f 7//11 4//11 5//11
f 6//12 4//12 7//12
f 7//13 5//13 1//13
f 7//14 1//14 8//14
f 11//15 10//15 5//15
f 11//16 2//16 3//16
f 11//17 5//17 2//17
f 3//18 12//18 11//18
f 12//19 3//19 9//19
f 10//20 8//20 1//20
f 8//21 9//21 7//21
f 13//22 10//22 12//22
