# Blender v3.4.0 OBJ File: 'debug.blend'
# www.blender.org
o link8
v -8.597329 -19.389927 96.359238
v -10.216153 -13.349290 87.795319
v -9.196029 3.164728 83.705956
v -8.651934 -6.076675 94.817017
v -3.123539 -7.746812 91.021339
v -7.276911 -3.630270 83.392670
v 0.362463 -7.457485 95.504684
v -10.422221 -13.142363 117.131050
v -8.906142 -7.747962 111.460266
v -9.183411 -8.864913 121.205688
v -1.071475 -2.297057 101.858818
v -8.234123 -17.952801 112.995827
v -6.460184 0.296732 121.704880
v -0.668006 -9.949093 106.180222
v -1.279141 2.695426 103.834671
v -8.975158 8.197536 96.532539
v -9.375711 13.646379 87.877357
v -10.162867 18.101025 96.506409
v -6.019655 17.610548 97.376892
v -0.512661 5.697575 94.096344
v -10.207897 17.787949 112.043289
v -9.355665 10.393582 120.112930
v -8.280835 7.227209 109.705643
v -5.826303 14.157955 114.620316
v -0.801560 10.081544 100.740097
v -0.850744 7.836635 109.936668
v 3.374865 -0.303019 92.797928
v 30.355192 -2.959829 92.990135
v -0.753266 -3.092772 113.399239
v 32.132500 -9.346225 99.135406
v 32.044769 -9.761670 105.796722
v 31.636873 -5.946749 111.276360
v 29.929945 3.665809 112.847000
v 47.883759 -15.459280 96.224892
v 38.488075 -6.689218 92.697807
v 34.949726 -0.001697 114.628647
v 49.214527 -17.364174 108.217743
v 45.033024 -12.498065 110.754646
v 56.796524 -55.938190 95.563950
v 58.217194 -48.790340 92.895439
v 65.981766 -56.670319 95.615723
v 65.460419 -46.946922 93.536179
v 51.800884 -52.834785 105.301651
v 56.884785 -60.351841 100.555809
v 57.137932 -56.916321 110.407486
v 65.598976 -49.241112 114.016197
v 65.592552 -59.823822 105.940125
v 69.064545 -51.528221 101.485268
v 57.542171 -39.891113 96.695770
v 62.128117 -23.368181 95.449249
v 65.914818 -40.984039 97.210648
v 51.221817 -45.496708 99.254051
v 51.160660 -23.288488 103.538521
v 54.962795 -25.452955 98.383804
v 57.834351 -47.883041 112.379288
v 53.884892 -36.470684 107.426239
v 53.978912 -20.098757 107.745010
v 66.100021 -37.849930 107.167496
v 61.426071 -31.907541 109.789246
v 65.965919 -23.893745 108.064041
v 68.549446 -36.040092 103.932205
v 67.351601 -26.784571 99.843948
v 62.125568 -6.377749 95.645958
v 52.329411 17.134815 97.986649
v 68.569801 28.949755 101.479492
v 31.687300 7.903939 96.197334
v 38.083374 6.791528 93.084167
v 44.903679 12.743667 94.965225
v 44.377312 12.429599 110.573196
v 31.458351 9.895892 105.119217
v 47.500664 16.582956 102.999092
v 44.538399 21.188953 105.343994
v 44.579693 23.483248 98.973885
v 31.480059 42.081406 79.747978
v 32.311386 40.609390 87.644821
v 40.656246 39.818401 89.563736
v 44.130325 38.974087 77.764915
v 31.629494 42.658070 97.838142
v 31.464869 41.743011 111.501221
v 40.685223 39.708324 98.666588
v 45.662334 37.504559 97.454536
v 43.772118 39.498154 113.175232
v 44.624744 35.439857 107.316452
v 34.345818 56.042671 94.488457
v 31.082163 58.141159 80.210793
v 41.948032 59.929161 79.485809
v 41.170490 59.804184 93.897583
v 45.730835 61.772095 77.789703
v 54.782227 60.948776 77.125351
v 31.921181 57.959904 98.814667
v 31.549278 58.546227 111.485390
v 41.398479 59.392754 111.928986
v 46.130219 61.400070 114.425888
v 62.379128 7.329786 95.421494
v 62.193756 20.679821 95.394508
v 52.581985 20.053064 107.799011
v 60.947300 37.032398 109.723122
v 66.091499 25.695238 108.045082
v 55.030224 38.573154 77.654251
v 54.989292 38.209293 94.079865
v 55.691765 46.787403 96.268654
v 55.815456 56.901569 96.692642
v 56.697701 32.708954 98.029755
v 54.366936 39.527679 114.334534
v 58.459618 36.800045 108.782326
v 61.118874 37.117630 100.792732
v 56.781784 41.682472 103.734047
v 63.139393 32.629559 96.673134
v 65.232956 43.797451 99.301842
v 66.376045 39.088593 98.980888
v 67.611824 39.901382 106.554535
v 66.172516 43.763546 105.661125
v 69.298134 49.610947 99.848137
v 54.619720 60.701794 114.037689
v 56.313122 55.874771 106.192657
v 60.075783 49.329575 104.263702
v 60.287041 52.320896 103.189667
v 60.799686 52.259811 99.892632
v 66.146767 50.838055 108.209328
v 67.388283 54.971127 103.768982
vn 0.6448 -0.4686 -0.6039
vn -0.8887 -0.4547 0.0587
vn 0.8448 -0.4927 -0.2084
vn 0.7434 -0.6675 0.0414
vn 0.7551 -0.3943 0.5238
vn 0.3170 -0.9299 -0.1864
vn 0.8110 -0.4194 0.4079
vn -0.9921 0.0313 -0.1213
vn 0.7044 0.2728 -0.6552
vn 0.8646 -0.0536 -0.4996
vn 0.7175 0.2329 -0.6564
vn 0.7494 0.4738 -0.4625
vn -0.8333 -0.0299 -0.5520
vn -0.5615 -0.8269 -0.0313
vn 0.5749 0.8035 0.1544
vn -0.4893 0.3033 -0.8177
vn -0.7569 -0.2675 0.5962
vn 0.8254 0.5474 0.1380
vn 0.8437 0.4643 -0.2697
vn 0.7929 0.5991 0.1111
vn -0.9589 0.0075 0.2836
vn -0.3410 0.0502 0.9387
vn -0.0188 -0.7251 0.6884
vn 0.0513 -0.1522 0.9870
vn 0.0421 -0.6866 -0.7258
vn -0.3431 -0.6991 -0.6273
vn -0.4665 -0.2227 0.8560
vn -0.3604 -0.7779 0.5148
vn -0.1667 -0.4122 0.8957
vn -0.3846 -0.6645 0.6407
vn 0.7920 0.5781 0.1964
vn -0.0559 -0.7485 -0.6608
vn -0.1469 -0.9328 0.3291
vn 0.8985 -0.4281 -0.0969
vn 0.9000 -0.0445 -0.4337
vn -0.9971 -0.0171 0.0747
vn -0.7749 0.1177 -0.6210
vn -0.7246 -0.0932 0.6829
vn -0.8286 -0.0061 0.5598
vn 0.1079 0.3973 -0.9113
vn -0.0285 -0.4222 0.9061
vn -0.3882 0.0383 -0.9208
vn 0.0496 -0.0888 -0.9948
vn 0.5737 -0.1518 0.8049
vn 0.9633 -0.0104 0.2683
vn 0.9857 0.0578 -0.1581
vn 0.6978 0.2533 0.6700
vn 0.6685 0.0697 -0.7404
vn -0.7462 -0.5937 -0.3012
vn -0.3040 -0.6500 0.6965
vn 0.6457 0.0083 -0.7635
vn 0.9520 -0.0118 -0.3057
vn 0.7419 -0.0247 -0.6700
vn -0.4824 -0.1249 -0.8670
vn 0.0468 0.2401 -0.9696
vn 0.0343 0.2791 -0.9596
vn -0.0212 0.8341 -0.5513
vn -0.0266 0.9712 0.2369
vn -0.3735 0.3045 -0.8762
vn -0.0699 0.3569 0.9315
vn -0.4006 0.8703 -0.2864
vn -0.3088 -0.9511 -0.0105
vn -0.4068 -0.9135 -0.0098
vn -0.8774 -0.4446 0.1802
vn -1.0000 0.0066 -0.0041
vn -0.9996 -0.0250 0.0091
vn -0.1489 0.0248 -0.9885
vn -0.1483 0.9730 0.1769
vn -0.9988 0.0162 0.0452
vn -0.9997 0.0197 -0.0107
vn -0.9996 0.0050 -0.0296
vn -0.4372 0.7056 -0.5577
vn -0.2216 0.9738 -0.0516
vn -0.0498 0.0565 0.9972
vn -0.4666 -0.0003 0.8845
vn -0.4020 0.9153 0.0260
vn -0.3560 0.9344 0.0134
vn 0.5260 -0.3592 -0.7709
vn -0.3114 -0.5825 0.7508
vn -0.2707 -0.0257 -0.9623
vn -0.2230 -0.0006 0.9748
vn 0.8710 0.0183 0.4909
vn 0.6849 0.0080 -0.7286
vn 0.0470 -0.9958 -0.0780
vn 0.0048 -0.1081 -0.9941
vn 0.0201 -0.8205 0.5713
vn -0.2272 -0.6136 -0.7562
vn -0.0429 -0.9089 0.4149
vn 0.9848 -0.0374 -0.1694
vn 0.9080 -0.3998 0.1256
vn -0.2805 0.0813 -0.9564
vn -0.2032 0.1201 -0.9718
vn -0.3270 0.6227 0.7109
vn 0.7716 0.5658 0.2908
vn 0.7849 -0.4520 -0.4237
vn 0.6723 0.0259 -0.7398
vn 0.4106 0.0516 0.9103
vn -0.4426 0.4901 -0.7510
vn -0.3630 0.9309 -0.0407
vn -0.6831 -0.7239 0.0971
vn 0.6431 -0.0492 -0.7642
vn 0.9702 0.1665 -0.1762
vn 0.9987 0.0099 -0.0507
vn 0.0912 0.9958 0.0091
vn 0.9376 0.3477 -0.0115
vn 0.0823 0.9966 0.0070
vn 0.6485 0.7562 0.0868
vn -0.8211 -0.4019 -0.4054
vn -0.4658 -0.3014 0.8320
vn -0.3437 0.9364 -0.0708
vn 0.0197 0.0799 -0.9966
vn 0.9364 0.0846 0.3405
vn -0.6421 -0.1467 -0.7524
vn 0.6638 -0.5463 -0.5108
vn -0.9641 -0.2653 -0.0049
vn -0.9980 -0.0152 0.0609
vn -0.5025 0.8610 0.0788
vn -0.0917 -0.6728 0.7341
vn 0.7452 -0.2551 0.6161
vn -0.9988 -0.0012 -0.0494
vn -0.7806 -0.0920 0.6183
vn 0.1956 0.8786 -0.4357
vn 0.7898 -0.0131 -0.6132
vn -0.9882 -0.1522 0.0155
vn -0.0176 -0.9859 -0.1665
vn -0.7617 -0.0439 -0.6465
vn -0.6481 -0.1053 0.7542
vn 0.2254 0.7301 0.6452
vn 0.1133 0.9934 0.0203
vn 0.8437 0.2132 0.4927
vn 0.6943 0.3021 0.6532
vn 0.7906 0.1913 0.5817
vn -0.0272 -0.3437 -0.9387
vn -0.3842 -0.9190 -0.0887
vn 0.0114 -0.8202 0.5719
vn 0.3820 0.0379 -0.9234
vn -0.3770 -0.6637 -0.6461
vn 0.0590 -0.2733 -0.9601
vn -0.1824 -0.9816 -0.0558
vn -0.8746 -0.3475 -0.3380
vn -0.8660 -0.3821 -0.3225
vn -0.7253 -0.6441 0.2432
vn -0.6988 -0.1241 -0.7045
vn -0.2342 -0.1901 0.9534
vn 0.2276 -0.9336 -0.2766
vn 0.2068 -0.5936 0.7777
vn 0.9270 -0.2280 0.2980
vn -0.0591 0.5270 -0.8478
vn -0.7859 0.0198 0.6180
vn -0.5669 0.2868 -0.7722
vn -0.7658 0.0140 0.6430
vn -0.4017 0.0352 -0.9151
vn -0.2896 -0.0170 0.9570
vn 0.0759 0.5113 0.8560
vn -0.1329 0.3556 0.9252
vn 0.9296 0.1394 -0.3412
vn 0.6199 0.3841 0.6842
vn 0.8280 0.0201 -0.5604
vn 0.3205 0.0075 -0.9472
vn 0.4029 -0.0069 0.9152
vn -0.9368 -0.3464 0.0489
vn 0.3045 0.0099 -0.9525
vn -0.3816 0.0106 -0.9243
vn -0.2810 -0.0111 0.9597
vn 0.6472 0.0089 -0.7623
vn -0.0492 0.3013 0.9523
vn -0.0231 0.0279 -0.9993
vn 0.0450 0.7734 0.6324
vn 0.0351 0.9756 -0.2169
vn -0.2794 0.5654 -0.7761
vn -0.3746 0.7566 0.5359
vn -0.3534 0.9110 -0.2125
vn -0.3205 0.8800 0.3504
vn -0.3981 0.8711 -0.2876
vn -0.9136 -0.4060 0.0205
vn -0.1351 -0.9731 0.1865
vn 0.3321 0.0017 0.9433
vn -0.9716 0.2365 -0.0022
vn -0.3652 -0.9300 -0.0410
vn -0.3034 -0.9505 -0.0673
vn -0.1826 -0.9829 0.0246
vn -0.9936 0.0669 -0.0905
vn -0.4401 -0.8685 -0.2281
vn 0.5988 0.8006 -0.0192
vn -0.0784 0.0735 -0.9942
vn -0.4838 0.8750 -0.0185
vn -0.4213 0.0306 -0.9064
vn -0.4438 0.8960 -0.0162
vn -0.0726 0.0062 -0.9973
vn -0.1345 0.0016 0.9909
vn -0.0867 0.9960 0.0238
vn -0.6471 0.7487 0.1437
vn -0.8662 -0.4683 -0.1743
vn -0.5527 -0.5819 -0.5965
vn 0.3367 -0.0198 0.9414
vn 0.0999 0.0021 0.9950
vn -0.3355 -0.0092 -0.9420
vn -0.2523 -0.0055 -0.9676
vn 0.9359 -0.0022 0.3522
vn -0.0370 -0.9991 -0.0222
vn -0.0110 -0.0238 -0.9997
vn 0.9966 -0.0818 0.0007
vn -0.1012 0.0311 -0.9944
vn -0.3061 -0.1287 0.9433
vn -0.1085 -0.0450 0.9931
vn -0.1032 -0.0222 0.9944
vn -0.3586 0.0712 0.9308
vn -0.1526 0.6301 -0.7613
vn 0.6890 -0.2692 -0.6729
vn 0.5415 0.7540 -0.3718
vn 0.7314 0.6817 0.0206
vn -0.3949 0.9187 0.0012
vn 0.9440 -0.0671 0.3231
vn 0.8186 -0.5608 -0.1239
vn 0.9216 -0.1286 0.3662
vn 0.9995 -0.0109 -0.0307
vn 0.9615 0.2748 0.0061
vn 0.8714 -0.0035 0.4905
vn 0.8397 0.5244 -0.1414
vn 0.0468 0.0134 0.9988
vn 0.9158 -0.3870 -0.1078
vn 0.5583 0.0279 -0.8291
vn 0.6975 0.1980 0.6887
vn 0.6838 0.7284 0.0429
vn -0.5710 0.3128 0.7590
vn 0.1902 0.6229 -0.7589
vn -0.3232 0.7361 0.5948
s off
f 5//1 2//1 6//1
f 8//2 1//2 12//2
f 14//3 1//3 5//3
f 14//4 12//4 1//4
f 29//5 10//5 12//5
f 7//6 14//6 5//6
f 29//7 12//7 14//7
f 3//8 2//8 17//8
f 17//9 20//9 3//9
f 20//10 5//10 6//10
f 20//11 6//11 3//11
f 19//12 20//12 17//12
f 21//13 23//13 9//13
f 16//14 15//14 23//14
f 21//15 24//15 19//15
f 23//16 15//16 11//16
f 16//17 11//17 15//17
f 24//18 26//18 25//18
f 19//19 25//19 20//19
f 24//20 25//20 19//20
f 22//21 8//21 10//21
f 10//22 13//22 22//22
f 29//23 14//23 32//23
f 29//24 32//24 33//24
f 7//25 28//25 30//25
f 30//26 28//26 35//26
f 33//27 32//27 36//27
f 32//28 31//28 38//28
f 36//29 32//29 38//29
f 31//30 37//30 38//30
f 36//31 38//31 37//31
f 44//32 39//32 41//32
f 45//33 44//33 47//33
f 48//34 47//34 41//34
f 42//35 48//35 41//35
f 52//36 43//36 53//36
f 54//37 52//37 53//37
f 43//38 45//38 55//38
f 53//39 56//39 57//39
f 49//40 51//40 40//40
f 56//41 58//41 59//41
f 50//42 49//42 54//42
f 50//43 51//43 49//43
f 60//44 59//44 61//44
f 61//45 46//45 48//45
f 61//46 48//46 62//46
f 59//47 58//47 61//47
f 50//48 62//48 51//48
f 53//49 34//49 54//49
f 37//50 53//50 57//50
f 65//51 62//51 63//51
f 61//52 62//52 65//52
f 65//53 63//53 94//53
f 27//54 7//54 20//54
f 66//55 27//55 20//55
f 66//56 28//56 27//56
f 66//57 20//57 25//57
f 70//58 25//58 26//58
f 67//59 28//59 66//59
f 33//60 36//60 69//60
f 71//61 68//61 70//61
f 80//62 78//62 76//62
f 80//63 76//63 81//63
f 80//64 83//64 82//64
f 73//65 72//65 83//65
f 85//66 74//66 78//66
f 77//67 74//67 85//67
f 86//68 85//68 84//68
f 85//69 78//69 90//69
f 90//70 78//70 79//70
f 91//71 90//71 79//71
f 87//72 84//72 90//72
f 87//73 90//73 91//73
f 92//74 91//74 82//74
f 92//75 82//75 93//75
f 92//76 93//76 87//76
f 88//77 87//77 93//77
f 68//78 64//78 67//78
f 72//79 71//79 96//79
f 64//80 94//80 54//80
f 97//81 96//81 59//81
f 65//82 60//82 61//82
f 65//83 94//83 95//83
f 81//84 77//84 100//84
f 103//85 73//85 81//85
f 82//86 83//86 105//86
f 81//87 100//87 103//87
f 82//88 105//88 104//88
f 101//89 107//89 100//89
f 116//90 104//90 107//90
f 95//91 64//91 103//91
f 108//92 95//92 103//92
f 107//93 105//93 97//93
f 105//94 107//94 104//94
f 101//95 118//95 107//95
f 108//96 65//96 95//96
f 111//97 97//97 98//97
f 110//98 108//98 106//98
f 110//99 106//99 111//99
f 116//100 109//100 112//100
f 110//101 65//101 108//101
f 111//102 65//102 110//102
f 102//103 99//103 89//103
f 93//104 89//104 88//104
f 114//105 115//105 102//105
f 114//106 89//106 93//106
f 117//107 118//107 102//107
f 116//108 118//108 109//108
f 119//109 116//109 112//109
f 118//110 117//110 120//110
f 113//111 109//111 118//111
f 119//112 113//112 120//112
f 2//113 3//113 6//113
f 1//114 2//114 5//114
f 8//115 2//115 1//115
f 2//116 4//116 18//116 17//116
f 9//117 11//117 4//117
f 10//118 8//118 12//118
f 29//119 13//119 10//119
f 9//120 8//120 22//120 21//120
f 18//121 4//121 16//121
f 18//122 19//122 17//122
f 5//123 20//123 7//123
f 23//124 21//124 18//124 16//124
f 30//125 31//125 14//125 7//125
f 23//126 11//126 9//126
f 16//127 4//127 11//127
f 22//128 24//128 21//128
f 21//129 19//129 18//129
f 24//130 13//130 29//130
f 24//131 22//131 13//131
f 26//132 24//132 29//132
f 27//133 28//133 7//133
f 30//134 34//134 37//134 31//134
f 32//135 14//135 31//135
f 67//136 34//136 35//136
f 30//137 35//137 34//137
f 39//138 40//138 42//138 41//138
f 77//139 76//139 75//139 74//139
f 52//140 39//140 43//140
f 43//141 39//141 44//141
f 43//142 44//142 45//142
f 52//143 40//143 39//143
f 46//144 55//144 45//144
f 47//145 44//145 41//145
f 46//146 45//146 47//146
f 48//147 46//147 47//147
f 51//148 42//148 40//148
f 56//149 53//149 43//149
f 49//150 40//150 52//150
f 43//151 55//151 56//151
f 54//152 49//152 52//152
f 57//153 56//153 59//153
f 46//154 58//154 56//154
f 56//155 55//155 46//155
f 42//156 51//156 48//156
f 58//157 46//157 61//157
f 62//158 48//158 51//158
f 64//159 34//159 67//159
f 37//160 69//160 36//160
f 53//161 37//161 34//161
f 34//162 64//162 54//162
f 63//163 50//163 54//163
f 59//164 96//164 57//164
f 63//165 62//165 50//165
f 26//166 29//166 33//166
f 67//167 35//167 28//167
f 33//168 70//168 26//168
f 25//169 70//169 66//169
f 68//170 67//170 66//170
f 70//171 33//171 69//171
f 70//172 68//172 66//172
f 70//173 69//173 71//173
f 71//174 64//174 68//174
f 74//175 75//175 78//175
f 78//176 75//176 76//176
f 60//177 98//177 97//177 59//177
f 2//178 8//178 9//178 4//178
f 76//179 77//179 81//179
f 80//180 79//180 78//180
f 79//181 80//181 82//181
f 83//182 81//182 73//182
f 80//183 81//183 83//183
f 90//184 84//184 85//184
f 86//185 77//185 85//185
f 87//186 86//186 84//186
f 86//187 88//187 77//187
f 86//188 87//188 88//188
f 88//189 89//189 77//189
f 82//190 91//190 79//190
f 91//191 92//191 87//191
f 69//192 96//192 71//192
f 71//193 72//193 73//193
f 64//194 71//194 73//194
f 96//195 69//195 37//195
f 96//196 37//196 57//196
f 54//197 94//197 63//197
f 64//198 95//198 94//198
f 65//199 98//199 60//199
f 100//200 77//200 99//200
f 89//201 99//201 77//201
f 101//202 100//202 99//202
f 103//203 64//203 73//203
f 83//204 72//204 96//204
f 93//205 82//205 104//205
f 105//206 83//206 96//206
f 105//207 96//207 97//207
f 103//208 106//208 108//208
f 100//209 106//209 103//209
f 107//210 106//210 100//210
f 106//211 107//211 97//211
f 97//212 111//212 106//212
f 111//213 98//213 65//213
f 113//214 112//214 109//214
f 113//215 119//215 112//215
f 102//216 101//216 99//216
f 114//217 102//217 89//217
f 114//218 104//218 116//218
f 114//219 116//219 115//219
f 114//220 93//220 104//220
f 118//221 116//221 107//221
f 101//222 102//222 118//222
f 117//223 115//223 116//223
f 117//224 102//224 115//224
f 117//225 116//225 119//225
f 120//226 113//226 118//226
f 120//227 117//227 119//227
